<?xml version="1.0" encoding="UTF-8" standalone="no"?>
<!-- Created with Inkscape (http://www.inkscape.org/) -->

<svg
   width="158.30901mm"
   height="44.693493mm"
   viewBox="0 0 158.30901 44.693493"
   version="1.1"
   id="svg1"
   xml:space="preserve"
   xmlns="http://www.w3.org/2000/svg"
   xmlns:svg="http://www.w3.org/2000/svg"><defs
     id="defs1" /><g
     id="layer1"
     transform="translate(-15.754368,-151.81764)"><path
       id="path2-3"
       style="fill:#000000;fill-opacity:1;stroke-width:0.04;stroke-linecap:round;stroke-linejoin:round;stroke-miterlimit:117"
       d="m 154.04407,37.369288 -13.33909,2.211855 -10.658,25.706452 -16.07102,-19.875375 c -5.56138,-5.633529 -9.78125,-5.257134 -9.93104,-5.241901 l -0.002,13.257427 c 2.28315,0.0015 3.97867,1.63051 3.97867,1.63051 l 15.02359,17.367954 c 2.46336,3.556947 -0.62338,6.056175 -0.62338,6.056175 -3.871,2.547556 -6.15951,-0.976739 -6.15951,-0.976739 L 104.04102,61.928707 v -0.002 l 0.002,-8.499003 -0.002,-0.002 h -0.002 l 0,0.0059 h -0.002 v 8.499003 h 0.002 l 0,2.650312 -0.002,-2.650312 -12.219366,15.578896 c 0,0 -2.288523,3.526253 -6.159514,0.978698 0,0 -3.086732,-2.501197 -0.623377,-6.058134 L 100.05844,55.06217 c 0,0 1.69552,-1.62897 3.97867,-1.630509 l -0.004,-13.257427 c -0.14979,-0.01523 -4.367713,-0.391628 -9.929089,5.2419 L 78.03505,65.293467 67.37706,39.585058 54.036008,37.373203 c 0,0 12.456288,40.217405 23.148983,58.113061 1.43502,1.714609 3.447675,2.551813 5.645569,2.648353 2.177134,-0.003 4.239075,-0.971944 5.633844,-2.646396 l 0.05862,-0.002 15.517991,-20.008478 15.51798,20.004563 h 0.0567 c 1.39477,1.674452 3.45866,2.645347 5.6358,2.648354 2.19789,-0.09651 4.2086,-0.933754 5.64362,-2.648354 10.69269,-17.895665 23.14898,-58.113061 23.14898,-58.113061 z"
       transform="matrix(0.7371174,0,0,0.7371174,-24.096041,124.22324)" /><path
       id="path301"
       style="font-size:18.5711px;font-family:'Microgramma D Extended';-inkscape-font-specification:'Microgramma D Extended';stroke-width:4.40779;stroke-linecap:round;stroke-linejoin:bevel;stroke-miterlimit:117"
       d="m 154.86401,180.84681 3e-5,15.42879 4.69554,-3e-5 v -3.90901 l 6.63885,3e-5 c 1.94303,0 2.29006,0.0462 2.61394,0.41643 0.37011,0.39323 0.46284,0.94791 0.46274,2.68286 l 2e-5,0.80974 4.62673,-2e-5 v -1.4341 c 0.0924,-3.5623 -0.32409,-4.25644 -2.70667,-4.53402 0.92526,-0.13885 1.36469,-0.30058 1.8042,-0.64756 0.83274,-0.62458 1.06399,-1.50377 1.06399,-3.79381 0,-2.68326 -0.34706,-3.70108 -1.52677,-4.41814 -0.99467,-0.60146 -0.99475,-0.60121 -6.31505,-0.60121 z m 4.69557,3.86331 h 6.6157 c 2.12809,0.0227 2.19804,0.0227 2.52185,0.16158 0.48578,0.20828 0.67073,0.64809 0.67081,1.68898 0,0.97154 -0.13911,1.43384 -0.50916,1.6652 -0.32386,0.23125 -0.32399,0.23125 -2.68345,0.2774 h -6.61567 z" /><path
       style="font-size:18.5711px;font-family:'Microgramma D Extended';-inkscape-font-specification:'Microgramma D Extended';stroke-width:4.40779;stroke-linecap:round;stroke-linejoin:bevel;stroke-miterlimit:117"
       d="m 136.21991,180.84684 -2e-5,15.42888 h 17.16378 l 2e-5,-3.70108 h -12.53743 l 2e-5,-2.45199 h 11.8203 v -3.40035 h -11.82032 l 2e-5,-2.24378 12.44486,-3e-5 3e-5,-3.63165 z"
       id="path299" /><path
       style="font-size:18.5711px;font-family:'Microgramma D Extended';-inkscape-font-specification:'Microgramma D Extended';stroke-width:4.40779;stroke-linecap:round;stroke-linejoin:bevel;stroke-miterlimit:117"
       d="m 119.24121,180.84684 -3e-5,15.42888 15.89157,-2e-5 -3e-5,-3.93236 h -10.96444 v -11.4965 z"
       id="path298" /><path
       id="path297"
       style="font-size:18.5711px;font-family:'Microgramma D Extended';-inkscape-font-specification:'Microgramma D Extended';stroke-width:4.40779;stroke-linecap:round;stroke-linejoin:bevel;stroke-miterlimit:117"
       d="m 98.237743,180.84681 3e-5,15.42879 h 11.103317 c 5.18147,-0.0227 5.43537,-0.0462 6.31441,-0.34693 1.36475,-0.46266 1.94323,-1.59633 1.94323,-3.79384 0,-2.47509 -0.62471,-3.37667 -2.66029,-3.7236 1.55,-0.43885 2.08229,-1.34205 2.08226,-3.53956 3e-5,-2.79891 -0.83279,-3.7703 -3.35418,-3.95535 -0.69391,-0.0462 -0.69378,-0.0462 -4.34859,-0.0694 z m 4.464537,3.63158 h 6.61565 c 2.12809,0.0227 2.19726,0.0227 2.45171,0.0694 0.48571,0.11562 0.69386,0.46268 0.69386,1.11037 5e-5,0.55515 -0.16208,0.94833 -0.50913,1.08716 -0.30073,0.13885 -0.97096,0.18531 -2.63644,0.18531 h -6.61565 z m -2e-5,5.52849 h 6.63883 c 2.72951,0.0227 2.72951,0.0227 2.96087,0.0694 0.532,0.11563 0.74021,0.43961 0.74023,1.15667 0,0.64771 -0.16233,0.99474 -0.55551,1.15669 -0.34693,0.16183 -0.34663,0.16158 -3.14562,0.1848 h -6.63878 z" /><path
       style="font-size:18.5711px;font-family:'Microgramma D Extended';-inkscape-font-specification:'Microgramma D Extended';stroke-width:4.40779;stroke-linecap:round;stroke-linejoin:bevel;stroke-miterlimit:117"
       d="m 79.593333,180.84684 3e-5,15.42888 h 17.16376 l -3e-5,-3.7011 -12.53739,2e-5 -2e-5,-2.45201 11.82035,2e-5 v -3.40035 h -11.82035 v -2.24378 h 12.44491 v -3.63168 z"
       id="path294" /></g></svg>
